<?xml version="1.0" encoding="UTF-8" standalone="no"?>
<!-- Created with Inkscape (http://www.inkscape.org/) -->

<svg
   xmlns:dc="http://purl.org/dc/elements/1.1/"
   xmlns:cc="http://creativecommons.org/ns#"
   xmlns:rdf="http://www.w3.org/1999/02/22-rdf-syntax-ns#"
   xmlns:svg="http://www.w3.org/2000/svg"
   xmlns="http://www.w3.org/2000/svg"
   xmlns:sodipodi="http://sodipodi.sourceforge.net/DTD/sodipodi-0.dtd"
   xmlns:inkscape="http://www.inkscape.org/namespaces/inkscape"
   width="74.452888mm"
   height="42.494312mm"
   viewBox="0 0 263.80944 150.5704"
   id="svg6699"
   version="1.1"
   inkscape:version="0.91 r13725"
   sodipodi:docname="mapworks-logo.svg">
  <defs
     id="defs6701" />
  <sodipodi:namedview
     id="base"
     pagecolor="#ffffff"
     bordercolor="#666666"
     borderopacity="1.0"
     inkscape:pageopacity="0.0"
     inkscape:pageshadow="2"
     inkscape:zoom="1.4"
     inkscape:cx="7.165966"
     inkscape:cy="101.22934"
     inkscape:document-units="px"
     inkscape:current-layer="flowRoot7287"
     showgrid="false"
     fit-margin-top="0.3"
     fit-margin-left="0.4"
     fit-margin-right="0.4"
     fit-margin-bottom="0.4"
     inkscape:window-width="1875"
     inkscape:window-height="1056"
     inkscape:window-x="45"
     inkscape:window-y="24"
     inkscape:window-maximized="1" />
  <metadata
     id="metadata6704">
    <rdf:RDF>
      <cc:Work
         rdf:about="">
        <dc:format>image/svg+xml</dc:format>
        <dc:type
           rdf:resource="http://purl.org/dc/dcmitype/StillImage" />
        <dc:title></dc:title>
      </cc:Work>
    </rdf:RDF>
  </metadata>
  <g
     inkscape:label="Layer 1"
     inkscape:groupmode="layer"
     id="layer1"
     transform="translate(-198.932,-719.76213)">
    <g
       class="Group"
       id="g6097"
       transform="matrix(0.02357569,0,0,0.02357569,30.934397,545.18623)">
      <g
         class="com.sun.star.drawing.CustomShape"
         id="g6099">
        <g
           id="id12">
          <rect
             class="BoundingBox"
             x="7593"
             y="7450"
             width="1648"
             height="2297"
             id="rect6102"
             style="fill:none;stroke:none" />
          <path
             d="M 7593,8813 9239,7917 8832,9746 7593,8813 Z m 1027,-1362 0,0 z m 212,2295 0,0 z"
             id="path6104"
             inkscape:connector-curvature="0"
             style="fill:#ffc000;stroke:none" />
        </g>
      </g>
      <g
         class="com.sun.star.drawing.CustomShape"
         id="g6106">
        <g
           id="id13">
          <rect
             class="BoundingBox"
             x="7186"
             y="8811"
             width="1646"
             height="2298"
             id="rect6109"
             style="fill:none;stroke:none" />
          <path
             d="m 8831,9745 -1645,897 406,-1830 1239,933 z m -1026,1363 0,0 z m -213,-2296 0,0 z"
             id="path6111"
             inkscape:connector-curvature="0"
             style="fill:#e46c0a;stroke:none" />
        </g>
      </g>
      <g
         class="Group"
         id="g6113">
        <g
           class="com.sun.star.drawing.CustomShape"
           id="g6115">
          <g
             id="id14">
            <rect
               class="BoundingBox"
               x="8786"
               y="8352"
               width="1646"
               height="2298"
               id="rect6118"
               style="fill:none;stroke:none" />
            <path
               d="m 8786,9715 1645,-897 -406,1830 -1239,-933 z m 1026,-1363 0,0 z m 213,2296 0,0 z"
               id="path6120"
               inkscape:connector-curvature="0"
               style="fill:#ffc000;stroke:none" />
          </g>
        </g>
        <g
           class="com.sun.star.drawing.CustomShape"
           id="g6122">
          <g
             id="id15">
            <rect
               class="BoundingBox"
               x="8378"
               y="9714"
               width="1648"
               height="2298"
               id="rect6125"
               style="fill:none;stroke:none" />
            <path
               d="m 10024,10648 -1645,896 406,-1829 1239,933 z m -1026,1363 0,0 z m -213,-2296 0,0 z"
               id="path6127"
               inkscape:connector-curvature="0"
               style="fill:#e46c0a;stroke:none" />
          </g>
        </g>
      </g>
    </g>
    <g
       style="font-style:normal;font-weight:normal;font-size:56.27949905px;line-height:125%;font-family:sans-serif;letter-spacing:0px;word-spacing:0px;fill:#000000;fill-opacity:1;stroke:none;stroke-width:1px;stroke-linecap:butt;stroke-linejoin:miter;stroke-opacity:1"
       id="flowRoot7287">
      <path
         d="m 229.34867,857.9969 6.4722,0 0,-19.30404 c 2.13864,-2.30748 4.10844,-3.43308 5.79684,-3.43308 2.92656,0 4.27728,1.6884 4.27728,6.24708 l 0,16.49004 6.4722,0 0,-19.30404 c 2.13864,-2.30748 4.05216,-3.43308 5.79684,-3.43308 2.87028,0 4.221,1.6884 4.221,6.24708 l 0,16.49004 6.52848,0 0,-17.33424 c 0,-6.97872 -2.70144,-10.9746 -8.55456,-10.9746 -3.48936,0 -6.24708,2.13864 -8.89224,4.95264 -1.29444,-3.0954 -3.60192,-4.95264 -7.65408,-4.95264 -3.43308,0 -6.13452,1.9698 -8.442,4.44612 l -0.22512,0 -0.45024,-3.77076 -5.3466,0 0,27.63348 z"
         style="font-style:normal;font-variant:normal;font-weight:600;font-stretch:normal;font-size:56.27999878px;line-height:125%;font-family:'Source Sans Pro';-inkscape-font-specification:'Source Sans Pro, Semi-Bold';text-align:start;letter-spacing:-3.27999997px;writing-mode:lr-tb;text-anchor:start;fill:#b8b8b8;fill-opacity:1"
         id="path7466" />
      <path
         d="m 280.25224,858.67226 c 3.26424,0 6.07824,-1.63212 8.55456,-3.71448 l 0.22512,0 0.45024,3.03912 5.3466,0 0,-16.37748 c 0,-7.71036 -3.43308,-11.93136 -10.29924,-11.93136 -4.38984,0 -8.32944,1.6884 -11.36856,3.60192 l 2.36376,4.33356 c 2.47632,-1.46328 5.0652,-2.70144 7.76664,-2.70144 3.77076,0 4.95264,2.47632 5.0652,5.40288 -11.36856,1.23816 -16.26492,4.33356 -16.26492,10.24296 0,4.84008 3.32052,8.10432 8.1606,8.10432 z m 2.08236,-5.0652 c -2.30748,0 -3.99588,-1.06932 -3.99588,-3.54564 0,-2.75772 2.47632,-4.72752 10.01784,-5.68428 l 0,6.1908 c -2.08236,1.91352 -3.77076,3.03912 -6.02196,3.03912 z"
         style="font-style:normal;font-variant:normal;font-weight:600;font-stretch:normal;font-size:56.27999878px;line-height:125%;font-family:'Source Sans Pro';-inkscape-font-specification:'Source Sans Pro, Semi-Bold';text-align:start;letter-spacing:-3.27999997px;writing-mode:lr-tb;text-anchor:start;fill:#b8b8b8;fill-opacity:1"
         id="path7468" />
      <path
         d="m 299.2943,868.91522 6.4722,0 0,-8.66712 -0.16884,-4.61496 c 2.2512,1.91352 4.67124,3.03912 7.09128,3.03912 6.13452,0 11.8188,-5.45916 11.8188,-14.9142 0,-8.55456 -3.99588,-14.07 -10.86204,-14.07 -3.03912,0 -6.02196,1.63212 -8.32944,3.60192 l -0.22512,0 -0.45024,-2.92656 -5.3466,0 0,38.5518 z m 12.04392,-15.58956 c -1.63212,0 -3.54564,-0.61908 -5.57172,-2.30748 l 0,-12.88812 c 2.13864,-2.08236 4.05216,-3.0954 6.07824,-3.0954 4.16472,0 5.96568,3.26424 5.96568,8.77968 0,6.24708 -2.814,9.51132 -6.4722,9.51132 z"
         style="font-style:normal;font-variant:normal;font-weight:600;font-stretch:normal;font-size:56.27999878px;line-height:125%;font-family:'Source Sans Pro';-inkscape-font-specification:'Source Sans Pro, Semi-Bold';text-align:start;letter-spacing:-2.81999946px;writing-mode:lr-tb;text-anchor:start;fill:#b8b8b8;fill-opacity:1"
         id="path7470" />
      <path
         d="m 332.8004,857.9969 7.42896,0 3.15168,-12.83184 c 0.61908,-2.58888 1.1256,-5.17776 1.63212,-8.10432 l 0.22512,0 c 0.61908,2.92656 1.06932,5.45916 1.6884,8.04804 l 3.20796,12.88812 7.71036,0 7.035,-27.63348 -6.07824,0 -3.32052,14.3514 c -0.50652,2.64516 -0.95676,5.23404 -1.46328,7.93548 l -0.22512,0 c -0.61908,-2.70144 -1.18188,-5.29032 -1.85724,-7.93548 l -3.6582,-14.3514 -5.9094,0 -3.60192,14.3514 c -0.67536,2.58888 -1.23816,5.23404 -1.74468,7.93548 l -0.22512,0 c -0.50652,-2.70144 -0.90048,-5.29032 -1.46328,-7.93548 l -3.32052,-14.3514 -6.52848,0 7.3164,27.63348 z"
         style="font-style:normal;font-variant:normal;font-weight:600;font-stretch:normal;font-size:56.27999878px;line-height:125%;font-family:'Source Sans Pro';-inkscape-font-specification:'Source Sans Pro, Semi-Bold';text-align:start;writing-mode:lr-tb;text-anchor:start;fill:#cfcfcf;fill-opacity:1"
         id="path7472" />
      <path
         d="m 378.50431,858.67226 c 6.92244,0 13.16952,-5.29032 13.16952,-14.46396 0,-9.22992 -6.24708,-14.52024 -13.16952,-14.52024 -6.86616,0 -13.11324,5.29032 -13.11324,14.52024 0,9.17364 6.24708,14.46396 13.11324,14.46396 z m 0,-5.29032 c -4.05216,0 -6.4722,-3.6582 -6.4722,-9.17364 0,-5.57172 2.42004,-9.22992 6.4722,-9.22992 4.05216,0 6.52848,3.6582 6.52848,9.22992 0,5.51544 -2.47632,9.17364 -6.52848,9.17364 z"
         style="font-style:normal;font-variant:normal;font-weight:600;font-stretch:normal;font-size:56.27999878px;line-height:125%;font-family:'Source Sans Pro';-inkscape-font-specification:'Source Sans Pro, Semi-Bold';text-align:start;writing-mode:lr-tb;text-anchor:start;fill:#cfcfcf;fill-opacity:1"
         id="path7474" />
      <path
         d="m 395.26008,857.9969 6.4722,0 0,-16.884 c 1.6884,-4.16472 4.33356,-5.68428 6.52848,-5.68428 1.18188,0 1.91352,0.16884 2.87028,0.45024 l 1.1256,-5.628 c -0.8442,-0.39396 -1.74468,-0.5628 -3.15168,-0.5628 -2.92656,0 -5.85312,1.9698 -7.82292,5.57172 l -0.22512,0 -0.45024,-4.89636 -5.3466,0 0,27.63348 z"
         style="font-style:normal;font-variant:normal;font-weight:600;font-stretch:normal;font-size:56.27999878px;line-height:125%;font-family:'Source Sans Pro';-inkscape-font-specification:'Source Sans Pro, Semi-Bold';text-align:start;letter-spacing:-1.37px;writing-mode:lr-tb;text-anchor:start;fill:#cfcfcf;fill-opacity:1"
         id="path7476" />
      <path
         d="m 414.88516,857.9969 6.35964,0 0,-7.035 4.33356,-4.95264 7.09128,11.98764 7.035,0 -10.4118,-16.37748 9.45504,-11.256 -7.09128,0 -10.24296,12.71928 -0.16884,0 0,-24.81948 -6.35964,0 0,39.73368 z"
         style="font-style:normal;font-variant:normal;font-weight:600;font-stretch:normal;font-size:56.27999878px;line-height:125%;font-family:'Source Sans Pro';-inkscape-font-specification:'Source Sans Pro, Semi-Bold';text-align:start;letter-spacing:-1.37px;writing-mode:lr-tb;text-anchor:start;fill:#cfcfcf;fill-opacity:1"
         id="path7478" />
      <path
         d="m 450.57466,858.67226 c 6.97872,0 10.74948,-3.82704 10.74948,-8.55456 0,-5.17776 -4.16472,-6.97872 -7.93548,-8.38572 -2.98284,-1.06932 -5.74056,-1.91352 -5.74056,-4.10844 0,-1.74468 1.29444,-3.03912 4.05216,-3.03912 2.19492,0 4.16472,0.95676 6.07824,2.36376 l 2.98284,-3.9396 c -2.2512,-1.74468 -5.3466,-3.32052 -9.17364,-3.32052 -6.1908,0 -10.07412,3.43308 -10.07412,8.27316 0,4.61496 4.10844,6.69732 7.76664,8.04804 2.92656,1.1256 5.9094,2.13864 5.9094,4.44612 0,1.91352 -1.407,3.32052 -4.38984,3.32052 -2.814,0 -5.17776,-1.18188 -7.65408,-3.0954 l -3.03912,4.16472 c 2.70144,2.19492 6.69732,3.82704 10.46808,3.82704 z"
         style="font-style:normal;font-variant:normal;font-weight:600;font-stretch:normal;font-size:56.27999878px;line-height:125%;font-family:'Source Sans Pro';-inkscape-font-specification:'Source Sans Pro, Semi-Bold';text-align:start;writing-mode:lr-tb;text-anchor:start;fill:#cfcfcf;fill-opacity:1"
         id="path7480" />
    </g>
  </g>
</svg>
